# AST/ASF file generated using VICON BodyLanguage
# -----------------------------------------------
:version 1.10
:name VICON
:units
  mass 1.0
  length 0.45
  angle deg
:documentation
   .ast/.asf automatically generated from VICON data using
   VICON BodyBuilder and BodyLanguage model FoxedUp or BRILLIANT.MOD
:root
   order TX TY TZ RX RY RZ
   axis XYZ
   position 0 0 0  
   orientation 0 0 0 
:bonedata
  begin
     id 1 
     name lhipjoint
     direction 0.635376 -0.686425 0.353719 
     length 2.47244 
     axis 0 0 0  XYZ
  end
  begin
     id 2 
     name lfemur
     direction 0.34202 -0.939693 0  
     length 7.25268  
     axis 0 0 20  XYZ
    dof rx ry rz
    limits (-160.0 20.0)
           (-70.0 70.0)
           (-60.0 70.0)
  end
  begin
     id 3 
     name ltibia
     direction 0.34202 -0.939693 0   
     length 7.6767   
     axis 0 0 20   XYZ
    dof rx
    limits (-10.0 170.0)
  end
  begin
     id 4 
     name lfoot
     direction 0.0803374 -0.220725 0.972022   
     length 2.22945   
     axis -90 7.62852e-016 20   XYZ
    dof rx rz
    limits (-45.0 90.0)
           (-70.0 20.0)
  end
  begin
     id 5 
     name ltoes
     direction 1.53579e-011 -4.21994e-011 1   
     length 1.11848   
     axis -90 7.62852e-016 20   XYZ
    dof rx
    limits (-90.0 20.0)
  end
  begin
     id 6 
     name rhipjoint
     direction -0.664428 -0.664335 0.342336   
     length 2.55466  
     axis 0 0 0  XYZ 
  end
  begin
     id 7 
     name rfemur
     direction -0.34202 -0.939693 0   
     length 6.83172   
     axis 0 0 -20   XYZ
    dof rx ry rz
    limits (-160.0 20.0)
           (-70.0 70.0)
           (-70.0 60.0)
  end
  begin
     id 8 
     name rtibia
     direction -0.34202 -0.939693 0   
     length 7.62692   
     axis 0 0 -20   XYZ
    dof rx
    limits (-10.0 170.0)
 end
 begin
     id 9 
     name rfoot
     direction -0.0949276 -0.260811 0.960711   
     length 2.19684  
     axis -90 -7.62852e-016 -20   XYZ
    dof rx rz
    limits (-45.0 90.0)
           (-20.0 70.0)
  end
  begin
     id 10 
     name rtoes
     direction -1.53543e-011 -4.2183e-011 1   
     length 1.09848   
     axis -90 -7.62852e-016 -20   XYZ
    dof rx
    limits (-90.0 20.0)
  end
  begin
     id 11 
     name lowerback
     direction 0.0118782 0.999815 -0.0151555   
     length 2.15772   
     axis 0 0 0   XYZ
    dof rx ry rz
    limits (-20.0 45.0)
           (-30.0 30.0)
           (-30.0 30.0)
  end
  begin
     id 12 
     name upperback
     direction 0.00130825 0.999065 0.0432113   
     length 2.14863   
     axis 0 0 0   XYZ
    dof rx ry rz
    limits (-20.0 45.0)
           (-30.0 30.0)
           (-30.0 30.0)
  end
  begin
     id 13 
     name thorax
     direction -0.00347005 0.998773 0.0494011   
     length 2.14936   
     axis 0 0 0   XYZ
    dof rx ry rz
    limits (-20.0 45.0)
           (-30.0 30.0)
           (-30.0 30.0)
  end
  begin
     id 14 
     name lowerneck
     direction -0.0262159 0.99424 0.103921   
     length 1.69373   
     axis 0 0 0   XYZ
    dof rx ry rz
    limits (-20.0 45.0)
           (-30.0 30.0)
           (-30.0 30.0)
  end
  begin
     id 15 
     name upperneck
     direction 0.0353511 0.977394 -0.20845   
     length 1.70857   
     axis 0 0 0   XYZ
    dof rx ry rz
    limits (-20.0 45.0)
           (-30.0 30.0)
           (-30.0 30.0)
  end
  begin
     id 16
     name head
     direction 0.0139214 0.996594 -0.0812836  
     length 1.72777  
     axis 0 0 0   XYZ
    dof rx ry rz
    limits (-20.0 45.0)
           (-30.0 30.0)
           (-30.0 30.0)
  end
  begin
     id 17 
     name lclavicle
     direction 0.841247 0.537205 -0.0609508  
     length 3.55371  
     axis 0 0 0   XYZ
    dof ry rz
    limits (-20.0 10.0)
           (0.0 20.0)
  end
  begin
     id 18 
     name lhumerus
     direction 1 -4.48964e-011 1.60116e-018   
     length 4.91377   
     axis -180 -30 -90   XYZ
    dof rx ry rz
    limits (-60.0 90.0)
           (-90.0 90.0)
           (-90.0 90.0)
  end
  begin
     id 19
     name lradius
     direction 1 -4.48989e-011 -8.93847e-027   
     length 3.00291   
     axis -180 -30 -90   XYZ
    dof rx
    limits (-10.0 170.0)
  end
  begin
     id 20
     name lwrist
     direction 1 -4.48932e-011 -7.31504e-027   
     length 1.50145   
     axis 5.74121e-015 90 90   XYZ
    dof ry
    limits (-180.0 0.0)
 end
  begin
     id 21 
     name lhand
     direction 1 -4.48971e-011 -1.46301e-026   
     length 0.450922   
     axis 9.33524e-015 90 90   XYZ
    dof rx rz
    limits (-90.0 90.0)
           (-45.0 45.0)
  end
  begin
     id 22 
     name lfingers
     direction 1 -4.49039e-011 -2.92602e-026   
     length 0.363545   
     axis 1.86705e-014 90 90   XYZ
    dof rx
    limits (0.0 90.0)
  end
  begin
     id 23
     name lthumb
     direction 0.707107 -6.34941e-011 0.707107   
     length 0.52198   
     axis -90 45 2.85299e-015   XYZ
    dof rx rz
    limits (-45.0 45.0)
           (-45.0 45.0)
  end
  begin
     id 24 
     name rclavicle
     direction -0.825079 0.56158 -0.0622297   
     length 3.39909  
     axis 0 0 0   XYZ 
    dof ry rz
    limits (-10.0 20.0)
           (-20.0 0.0)
  end
  begin
     id 25 
     name rhumerus
     direction -1 -4.48965e-011 1.61691e-027  
     length 4.86725   
     axis -180 30 90   XYZ
    dof rx ry rz
    limits (-90.0 60.0)
           (-90.0 90.0)
           (-90.0 90.0)
  end
  begin
     id 26 
     name rradius
     direction -1 -4.48964e-011 -2.25776e-027   
     length 3.17144   
     axis -180 30 90   XYZ
    dof rx
    limits (-10.0 170.0)
  end
  begin
     id 27 
     name rwrist
     direction -1 -4.48961e-011 -7.31504e-027   
     length 1.58572   
     axis 5.74121e-015 -90 -90   XYZ
    dof ry
    limits (-180.0 0.0)
  end
  begin
     id 28
     name rhand
     direction -1 -4.49013e-011 -1.46301e-026   
     length 0.419368   
     axis 9.33524e-015 -90 -90   XYZ
    dof rx rz
    limits (-90.0 90.0)
           (-45.0 45.0)
  end
  begin
     id 29
     name rfingers
     direction -1 -4.489e-011 -2.92602e-026   
     length 0.338105   
     axis 1.86705e-014 -90 -90   XYZ
    dof rx
    limits (0.0 90.0)
  end
  begin
     id 30
     name rthumb
     direction -0.707107 -6.35022e-011 0.707107   
     length 0.485453   
     axis -90 -45 -2.85299e-015   XYZ
    dof rx rz
    limits (-45.0 45.0)
           (-45.0 45.0)
  end
:hierarchy
  begin
    root lhipjoint rhipjoint lowerback
    lhipjoint lfemur
    lfemur ltibia
    ltibia lfoot
    lfoot ltoes
    rhipjoint rfemur
    rfemur rtibia
    rtibia rfoot
    rfoot rtoes
    lowerback upperback
    upperback thorax
    thorax lowerneck lclavicle rclavicle
    lowerneck upperneck
    upperneck head
    lclavicle lhumerus
    lhumerus lradius
    lradius lwrist
    lwrist lhand lthumb
    lhand lfingers
    rclavicle rhumerus
    rhumerus rradius
    rradius rwrist
    rwrist rhand rthumb
    rhand rfingers
  end

#!OML:ASF H:\Swim 2\Project 1\Capture day 1\Session 1\male.ASF
:FULLY-SPECIFIED
:DEGREES
972
root 7.57498 9.85863 11.8153 93.7301 2.70067 5.16164
lowerback -2.18078 6.21102 -2.45195
upperback -3.98546 8.50684 1.47397
thorax -3.48062 4.41891 2.75269
lowerneck -14.9429 -2.58686 8.35451
upperneck 24.3512 -4.71947 -3.56271
head 9.91376 -1.74508 -3.23864
rclavicle -4.77083e-014 9.14409e-015
rhumerus 73.2414 -30.8494 -13.3151
rradius 25.815
rwrist 7.25491
rhand -33.9415 -0.887149
rfingers 7.12502
rthumb -7.12306 -30.7473
lclavicle -4.77083e-014 9.14409e-015
lhumerus -99.0522 -32.649 137.26
lradius 45.6245
lwrist -3.30904
lhand -33.959 -32.7528
lfingers 7.12502
lthumb -7.13997 -2.89323
rfemur -30.8415 9.13168 19.3969
rtibia 19.6825
rfoot 36.1914 -0.114088
rtoes 20.3962
lfemur -25.6213 -0.0827023 -23.7075
ltibia 41.186
lfoot 2.36567 7.65097
ltoes 7.90943
973
root 7.57074 9.85661 11.8035 93.6993 2.69289 5.46049
lowerback -2.19233 6.33798 -2.39923
upperback -3.99748 8.68193 1.50672
thorax -3.49671 4.50693 2.75315
lowerneck -14.8986 -2.71942 8.2249
upperneck 24.3614 -4.88117 -3.48509
head 9.90337 -1.8189 -3.20707
rclavicle 1.78111e-013 2.34566e-014
rhumerus 73.2799 -30.8896 -13.8084
rradius 25.6119
rwrist 8.32338
rhand -33.8528 -0.903183
rfingers 7.12502
rthumb -7.0375 -30.7662
lclavicle 1.78111e-013 2.34566e-014
lhumerus -98.9545 -32.8546 136.436
lradius 44.8026
lwrist -3.75473
lhand -34.2769 -32.562
lfingers 7.12502
lthumb -7.44682 -2.71308
rfemur -30.7799 9.07174 19.3086
rtibia 20.1828
rfoot 36.0994 0.00406281
rtoes 20.4852
lfemur -25.9468 -0.34468 -23.6211
ltibia 40.5314
lfoot 2.39431 8.60406
ltoes 8.57708
974
root 7.56653 9.85371 11.7896 93.6874 2.6796 5.73042
lowerback -2.2164 6.4658 -2.33918
upperback -4.0146 8.85831 1.52847
thorax -3.5082 4.59528 2.73975
lowerneck -14.8393 -2.8558 8.0461
upperneck 24.3532 -5.05908 -3.30888
head 9.88807 -1.89385 -3.13371
rclavicle -1.04958e-013 -9.14409e-015
rhumerus 73.2234 -30.9253 -14.1615
rradius 25.4449
rwrist 9.21497
rhand -33.7979 -0.955801
rfingers 7.12502
rthumb -6.98448 -30.8206
lclavicle -1.04958e-013 -9.14409e-015
lhumerus -98.7421 -33.0821 135.455
lradius 43.8412
lwrist -4.05419
lhand -34.6046 -32.4906
lfingers 7.12502
lthumb -7.76311 -2.6531
rfemur -30.6848 9.03219 19.2436
rtibia 20.8121
rfoot 36.0994 0.233782
rtoes 20.6617
lfemur -26.3795 -0.729105 -23.5
ltibia 39.7915
lfoot 2.31215 9.86449
ltoes 9.36041
975
root 7.5621 9.85004 11.7739 93.6947 2.66265 5.97982
lowerback -2.24904 6.58327 -2.26896
upperback -4.03737 9.02061 1.54106
thorax -3.51644 4.67614 2.71286
lowerneck -14.7495 -2.9926 7.81666
upperneck 24.2886 -5.24546 -3.03782
head 9.85224 -1.96862 -3.01738
rclavicle 1.08139e-013 9.14409e-015
rhumerus 73.187 -30.9456 -14.5553
rradius 25.2825
rwrist 10.0565
rhand -33.7876 -1.00958
rfingers 7.12502
rthumb -6.9745 -30.8747
lclavicle 1.08139e-013 9.14409e-015
lhumerus -98.417 -33.3171 134.32
lradius 42.7599
lwrist -4.13235
lhand -34.8906 -32.6562
lfingers 7.12502
lthumb -8.03916 -2.82909
rfemur -30.5493 8.99212 19.2104
rtibia 21.5406
rfoot 36.1901 0.56623
rtoes 20.8768
lfemur -26.9222 -1.23819 -23.3358
ltibia 39.0049
lfoot 2.23551 11.2548
ltoes 10.931
976
root 7.55603 9.84545 11.7571 93.6505 2.64975 6.16181
lowerback -2.22336 6.70242 -2.1819
upperback -4.03852 9.18257 1.54751
thorax -3.53065 4.75514 2.66502
lowerneck -14.6749 -3.08899 7.65685
upperneck 24.1736 -5.36905 -2.87181
head 9.80003 -2.02325 -2.94125
rclavicle -8.5875e-014 -1.47101e-014
rhumerus 72.9252 -30.9864 -14.5462
rradius 25.1875
rwrist 10.431
rhand -33.8289 -1.10776
rfingers 7.12502
rthumb -7.01441 -30.9715
lclavicle -8.5875e-014 -1.47101e-014
lhumerus -97.9628 -33.5642 133.003
lradius 41.5695
lwrist -3.99408
lhand -35.1116 -32.7449
lfingers 7.12502
lthumb -8.25246 -2.92605
rfemur -30.2931 8.97523 19.2395
rtibia 22.3359
rfoot 36.3884 0.988987
rtoes 21.1281
lfemur -27.4916 -1.81868 -23.1141
ltibia 38.2045
lfoot 2.1275 12.7369
ltoes 12.6129
977
root 7.54874 9.84054 11.7404 93.589 2.63207 6.30757
lowerback -2.16801 6.80538 -2.08054
upperback -4.02747 9.32074 1.54225
thorax -3.54227 4.82076 2.59551
lowerneck -14.5967 -3.13907 7.57017
upperneck 23.9818 -5.41767 -2.82272
head 9.71796 -2.05435 -2.90718
rclavicle -6.36111e-015 1.23246e-014
rhumerus 72.5417 -31.0374 -14.2977
rradius 25.1285
rwrist 10.4584
rhand -33.8996 -1.20636
rfingers 7.12502
rthumb -7.08268 -31.0678
lclavicle -6.36111e-015 1.23246e-014
lhumerus -97.3643 -33.8101 131.469
lradius 40.288
lwrist -3.70263
lhand -35.261 -32.769
lfingers 7.12502
lthumb -8.39662 -2.95591
rfemur -29.9484 8.95241 19.3111
rtibia 23.1661
rfoot 36.6836 1.49055
rtoes 21.3585
lfemur -28.1246 -2.48621 -22.8466
ltibia 37.4173
lfoot 2.01197 14.2543
ltoes 14.7396
978
root 7.53971 9.83549 11.7246 93.4917 2.61039 6.4076
lowerback -2.06404 6.89304 -1.97108
upperback -3.99743 9.43591 1.53066
thorax -3.55676 4.87347 2.51097
lowerneck -14.4642 -3.16732 7.52295
upperneck 23.662 -5.42669 -2.82854
head 9.57966 -2.07566 -2.88894
rclavicle 7.95139e-014 1.27222e-014
rhumerus 72.0076 -31.0996 -13.7475
rradius 25.1146
rwrist 10.0893
rhand -33.9984 -1.29029
rfingers 7.12502
rthumb -7.17803 -31.1486
lclavicle 7.95139e-014 1.27222e-014
lhumerus -96.6151 -34.0391 129.646
lradius 38.965
lwrist -3.39012
lhand -35.2991 -32.6751
lfingers 7.12502
lthumb -8.43341 -2.86347
rfemur -29.4953 8.93285 19.4256
rtibia 24.0039
rfoot 37.021 2.04039
rtoes 21.4463
lfemur -28.7879 -3.20624 -22.5382
ltibia 36.656
lfoot 1.84087 15.7995
ltoes 16.6726
979
root 7.52919 9.83097 11.7106 93.3817 2.58366 6.47988
lowerback -1.93208 6.96188 -1.85737
upperback -3.95828 9.52435 1.51301
thorax -3.57343 4.91196 2.41574
lowerneck -14.2714 -3.17865 7.50534
upperneck 23.2316 -5.403 -2.8794
head 9.3913 -2.08891 -2.88264
rclavicle 6.67916e-014 6.75868e-015
rhumerus 71.3878 -31.161 -13.0143
rradius 25.1233
rwrist 9.49482
rhand -34.1098 -1.38008
rfingers 7.12502
rthumb -7.28559 -31.2346
lclavicle 6.67916e-014 6.75868e-015
lhumerus -95.7432 -34.274 127.608
lradius 37.6011
lwrist -3.10124
lhand -35.2735 -32.6686
lfingers 7.12502
lthumb -8.40873 -2.85596
rfemur -28.9652 8.90619 19.5706
rtibia 24.8315
rfoot 37.3536 2.60845
rtoes 21.2786
lfemur -29.4913 -3.95974 -22.1997
ltibia 35.921
lfoot 1.5529 17.3978
ltoes 18.1944
980
root 7.51753 9.82759 11.6999 93.2791 2.54962 6.53931
lowerback -1.78753 7.00507 -1.74363
upperback -3.91949 9.57769 1.49157
thorax -3.5943 4.93259 2.31594
lowerneck -14.008 -3.19427 7.44968
upperneck 22.7148 -5.38563 -2.86353
head 9.16436 -2.10383 -2.84359
rclavicle -1.08139e-013 -2.06736e-014
rhumerus 70.7938 -31.2075 -12.2911
rradius 25.1296
rwrist 8.87354
rhand -34.2257 -1.42738
rfingers 7.12502
rthumb -7.39742 -31.278
lclavicle -1.08139e-013 -2.06736e-014
lhumerus -94.78 -34.5087 125.409
lradius 36.1946
lwrist -2.88999
lhand -35.2987 -33.1184
lfingers 7.12502
lthumb -8.43304 -3.30673
rfemur -28.3902 8.8598 19.7346
rtibia 25.6335
rfoot 37.7327 3.17748
rtoes 20.6526
lfemur -30.2341 -4.7189 -21.8447
ltibia 35.2031
lfoot 1.1486 19.0413
ltoes 19.0526
981
root 7.50498 9.82576 11.6933 93.1936 2.50968 6.59462
lowerback -1.6377 7.02043 -1.63151
upperback -3.88793 9.59375 1.47215
thorax -3.6239 4.93471 2.21885
lowerneck -13.6814 -3.21277 7.3415
upperneck 22.1451 -5.36957 -2.78347
head 8.91318 -2.11822 -2.77155
rclavicle -4.77083e-014 -1.55052e-014
rhumerus 70.378 -31.2311 -11.8353
rradius 25.0961
rwrist 8.50145
rhand -34.341 -1.42265
rfingers 7.12502
rthumb -7.50876 -31.2694
lclavicle -4.77083e-014 -1.55052e-014
lhumerus -93.7459 -34.7468 123.099
lradius 34.7459
lwrist -2.80242
lhand -35.2658 -33.2613
lfingers 7.12502
lthumb -8.40128 -3.44838
rfemur -27.7969 8.78429 19.9123
rtibia 26.4026
rfoot 38.1873 3.73231
rtoes 19.4116
lfemur -31.0017 -5.45558 -21.4814
ltibia 34.4931
lfoot 0.656979 20.6566
ltoes 19.2393
